<svg width="64" height="64" viewBox="0 0 64 64" fill="none" xmlns="http://www.w3.org/2000/svg">
  <rect width="64" height="64" rx="12" fill="#58a6ff" fill-opacity="0.1"/>
  <path d="M32 12C20.96 12 12 20.96 12 32C12 43.04 20.96 52 32 52C43.04 52 52 43.04 52 32C52 20.96 43.04 12 32 12ZM32 48C23.16 48 16 40.84 16 32C16 23.16 23.16 16 32 16C40.84 16 48 23.16 48 32C48 40.84 40.84 48 32 48Z" fill="#58a6ff"/>
  <path d="M22 20H42C43.1 20 44 20.9 44 22V42C44 43.1 43.1 44 42 44H22C20.9 44 20 43.1 20 42V22C20 20.9 20.9 20 22 20Z" fill="#58a6ff"/>
  <path d="M24 24H40V28H24V24ZM24 30H40V32H24V30ZM24 34H36V36H24V34ZM24 38H32V40H24V38Z" fill="white"/>
</svg>
