<svg width="64" height="64" viewBox="0 0 64 64" fill="none" xmlns="http://www.w3.org/2000/svg">
  <rect width="64" height="64" rx="12" fill="#58a6ff" fill-opacity="0.1"/>
  <path d="M32 12C20.96 12 12 20.96 12 32C12 43.04 20.96 52 32 52C43.04 52 52 43.04 52 32C52 20.96 43.04 12 32 12ZM32 48C23.16 48 16 40.84 16 32C16 23.16 23.16 16 32 16C40.84 16 48 23.16 48 32C48 40.84 40.84 48 32 48Z" fill="#58a6ff"/>
  <path d="M44 22H20C18.9 22 18 22.9 18 24V40C18 41.1 18.9 42 20 42H44C45.1 42 46 41.1 46 40V24C46 22.9 45.1 22 44 22ZM42 38H22V26H42V38Z" fill="#58a6ff"/>
  <path d="M32 28L38 34L32 40L26 34L32 28Z" fill="white"/>
</svg>
