<svg width="64" height="64" viewBox="0 0 64 64" fill="none" xmlns="http://www.w3.org/2000/svg">
  <rect width="64" height="64" rx="12" fill="#58a6ff" fill-opacity="0.1"/>
  <path d="M32 12C20.96 12 12 20.96 12 32C12 43.04 20.96 52 32 52C43.04 52 52 43.04 52 32C52 20.96 43.04 12 32 12ZM32 48C23.16 48 16 40.84 16 32C16 23.16 23.16 16 32 16C40.84 16 48 23.16 48 32C48 40.84 40.84 48 32 48Z" fill="#58a6ff"/>
  <path d="M32 20L40 32L32 44L24 32L32 20Z" fill="#58a6ff"/>
  <circle cx="32" cy="32" r="4" fill="white"/>
  <path d="M18 18L22 22M46 18L42 22M18 46L22 42M46 46L42 42" stroke="#58a6ff" stroke-width="2" stroke-linecap="round"/>
</svg>
