<svg width="64" height="64" viewBox="0 0 64 64" fill="none" xmlns="http://www.w3.org/2000/svg">
  <rect width="64" height="64" rx="12" fill="#58a6ff" fill-opacity="0.1"/>
  <path d="M32 12C20.96 12 12 20.96 12 32C12 43.04 20.96 52 32 52C43.04 52 52 43.04 52 32C52 20.96 43.04 12 32 12ZM32 48C23.16 48 16 40.84 16 32C16 23.16 23.16 16 32 16C40.84 16 48 23.16 48 32C48 40.84 40.84 48 32 48Z" fill="#58a6ff"/>
  <path d="M38 22H26C24.9 22 24 22.9 24 24V40C24 41.1 24.9 42 26 42H38C39.1 42 40 41.1 40 40V24C40 22.9 39.1 22 38 22ZM36 38H28V34H36V38ZM36 32H28V28H36V32ZM36 26H28V24H36V26Z" fill="#58a6ff"/>
  <circle cx="20" cy="20" r="3" fill="#4caf50"/>
  <circle cx="44" cy="20" r="3" fill="#ff9800"/>
  <circle cx="20" cy="44" r="3" fill="#f44336"/>
</svg>
