<svg width="64" height="64" viewBox="0 0 64 64" fill="none" xmlns="http://www.w3.org/2000/svg">
  <rect width="64" height="64" rx="12" fill="#58a6ff" fill-opacity="0.1"/>
  <path d="M32 12C20.96 12 12 20.96 12 32C12 43.04 20.96 52 32 52C43.04 52 52 43.04 52 32C52 20.96 43.04 12 32 12ZM32 48C23.16 48 16 40.84 16 32C16 23.16 23.16 16 32 16C40.84 16 48 23.16 48 32C48 40.84 40.84 48 32 48Z" fill="#58a6ff"/>
  <path d="M44 28H40C39.45 28 39 28.45 39 29C39 29.55 39.45 30 40 30H44C44.55 30 45 29.55 45 29C45 28.45 44.55 28 44 28Z" fill="#58a6ff"/>
  <path d="M24 28H20C19.45 28 19 28.45 19 29C19 29.55 19.45 30 20 30H24C24.55 30 25 29.55 25 29C25 28.45 24.55 28 24 28Z" fill="#58a6ff"/>
  <circle cx="32" cy="29" r="6" fill="#58a6ff"/>
  <path d="M42 35L38 39L34 35H42Z" fill="#58a6ff"/>
  <path d="M22 35L26 39L30 35H22Z" fill="#58a6ff"/>
</svg>
