<svg width="64" height="64" viewBox="0 0 64 64" fill="none" xmlns="http://www.w3.org/2000/svg">
  <rect width="64" height="64" rx="12" fill="#58a6ff" fill-opacity="0.1"/>
  <path d="M32 12C20.96 12 12 20.96 12 32C12 43.04 20.96 52 32 52C43.04 52 52 43.04 52 32C52 20.96 43.04 12 32 12ZM32 48C23.16 48 16 40.84 16 32C16 23.16 23.16 16 32 16C40.84 16 48 23.16 48 32C48 40.84 40.84 48 32 48Z" fill="#58a6ff"/>
  <path d="M46 20H18C16.9 20 16 20.9 16 22V42C16 43.1 16.9 44 18 44H46C47.1 44 48 43.1 48 42V22C48 20.9 47.1 20 46 20Z" fill="#58a6ff"/>
  <path d="M20 24H44V26H20V24ZM20 28H44V40H20V28Z" fill="white"/>
  <path d="M24 32H40V34H24V32ZM24 36H36V38H24V36Z" fill="#58a6ff"/>
</svg>
